<svg xmlns="http://www.w3.org/2000/svg" width="128.904" height="34.86" viewBox="0 0 128.904 34.86">
  <g id="github-2" transform="translate(51 -138)">
    <path id="Tracé_207" data-name="Tracé 207" d="M24.706,189.983H13.873a.507.507,0,0,0-.506.506v5.3a.507.507,0,0,0,.506.507H18.1v6.58a12.789,12.789,0,0,1-3.572.324c-3.095,0-7.418-1.131-7.418-10.638s4.5-10.76,8.728-10.76a17.142,17.142,0,0,1,6.237.954.509.509,0,0,0,.607-.5l1.208-5.117a.473.473,0,0,0-.194-.4c-.407-.29-2.892-1.681-9.169-1.681-7.231,0-14.649,3.077-14.649,17.866s8.493,16.994,15.649,16.994a17.618,17.618,0,0,0,9.52-2.532.436.436,0,0,0,.164-.384V190.489a.506.506,0,0,0-.506-.506M80.53,176.834a.5.5,0,0,0-.5-.509h-6.1a.507.507,0,0,0-.505.509l0,11.787H63.917V176.834a.505.505,0,0,0-.5-.509h-6.1a.507.507,0,0,0-.5.509V208.75a.508.508,0,0,0,.5.51h6.1a.507.507,0,0,0,.5-.51V195.1h9.507l-.017,13.652a.508.508,0,0,0,.505.51h6.114a.507.507,0,0,0,.5-.51V176.834m-44.315,4.188A3.933,3.933,0,1,0,32.282,185a3.95,3.95,0,0,0,3.933-3.973m-.436,20.995V187.285a.507.507,0,0,0-.5-.509h-6.08a.582.582,0,0,0-.529.568v21.107c0,.621.387.8.887.8H35.03c.6,0,.748-.3.748-.814v-6.424m67.931-15.193H97.657a.507.507,0,0,0-.5.51v15.649a6.838,6.838,0,0,1-3.72,1.125c-2.182,0-2.761-.99-2.761-3.127V187.335a.507.507,0,0,0-.5-.51H84.026a.508.508,0,0,0-.5.51v14.68c0,6.347,3.537,7.9,8.4,7.9a14.184,14.184,0,0,0,7.211-2.205,12.808,12.808,0,0,0,.223,1.3.533.533,0,0,0,.445.276l3.908-.017a.509.509,0,0,0,.5-.509l0-21.424a.508.508,0,0,0-.505-.511m14.155,17.265a7.255,7.255,0,0,1-3.523-1.017V192.966a8.066,8.066,0,0,1,3.128-1.015c2.18-.2,4.28.463,4.28,5.662C121.749,203.1,120.8,204.178,117.864,204.09Zm2.387-17.982a11.38,11.38,0,0,0-5.776,1.534V176.834a.506.506,0,0,0-.5-.509h-6.116a.507.507,0,0,0-.5.509V208.75a.508.508,0,0,0,.5.51H112.1a.505.505,0,0,0,.442-.271,9.935,9.935,0,0,0,.258-1.471,10.943,10.943,0,0,0,7.236,2.37c5.558,0,8.746-2.819,8.746-12.657s-5.091-11.123-8.531-11.123m-66.943.666H48.733l-.007-6.044c0-.229-.118-.343-.382-.343H42.109c-.242,0-.373.107-.373.34v6.246s-3.124.754-3.336.815a.506.506,0,0,0-.365.486V192.2a.506.506,0,0,0,.5.509h3.2v9.442c0,7.014,4.919,7.7,8.239,7.7a13.891,13.891,0,0,0,3.631-.6.472.472,0,0,0,.286-.458l.005-4.318a.515.515,0,0,0-.506-.509c-.267,0-.949.108-1.651.108-2.247,0-3.009-1.045-3.009-2.4v-8.974h4.575a.506.506,0,0,0,.5-.509v-4.917a.506.506,0,0,0-.5-.508" transform="translate(-50.878 -37.062)" fill="#fff"/>
  </g>
</svg>
