<svg xmlns="http://www.w3.org/2000/svg" width="96.027" height="100.957" viewBox="0 0 96.027 100.957">
  <g id="guidance" transform="translate(-12.5 0.001)">
    <path id="Tracé_188" data-name="Tracé 188" d="M331.516,37.374a1.972,1.972,0,0,0,1.418-3.341l-.005-.006a1.972,1.972,0,1,0-1.413,3.347Z" transform="translate(-254.528 -26.836)" fill="#fff"/>
    <path id="Tracé_189" data-name="Tracé 189" d="M107.694,64.987,91.406,53.462A1.972,1.972,0,0,0,88.3,55.072v4.618H67.4V51.041A25.74,25.74,0,0,0,78.83,44.352,26.129,26.129,0,0,0,84,15.019a1.972,1.972,0,1,0-3.577,1.659,22.174,22.174,0,0,1-3.974,24.459,16.569,16.569,0,0,0-6.831-9.719,11.432,11.432,0,1,0-18.214,0,16.576,16.576,0,0,0-6.834,9.72A22.114,22.114,0,0,1,44.99,10.4,21.887,21.887,0,0,1,68.647,5.512a1.972,1.972,0,1,0,1.464-3.661A25.961,25.961,0,0,0,42.2,44.352a26.316,26.316,0,0,0,2.583,2.272c.05.043.1.083.158.121a25.591,25.591,0,0,0,8.683,4.295v8.65H32.731V55.072a1.972,1.972,0,0,0-3.111-1.609L13.333,64.987a1.972,1.972,0,0,0,0,3.219L29.62,79.736a1.972,1.972,0,0,0,3.111-1.609V73.5H53.62v7.167h-4.6a1.972,1.972,0,0,0-1.613,3.105L58.9,100.118a1.972,1.972,0,0,0,1.613.838h0a1.972,1.972,0,0,0,1.613-.838L73.615,83.776A1.972,1.972,0,0,0,72,80.671H67.4V73.5H88.3v4.623a1.972,1.972,0,0,0,3.111,1.609l16.288-11.53a1.972,1.972,0,0,0,0-3.219ZM60.511,16.976a7.521,7.521,0,1,1-7.487,7.518A7.514,7.514,0,0,1,60.511,16.976ZM48.061,44.14a12.6,12.6,0,0,1,6.355-9.951,11.365,11.365,0,0,0,12.19,0,12.592,12.592,0,0,1,6.354,9.954,21.91,21.91,0,0,1-24.9,0ZM92.239,74.314V71.531a1.972,1.972,0,0,0-1.972-1.972H65.429a1.972,1.972,0,0,0-1.972,1.972V82.642a1.972,1.972,0,0,0,1.972,1.972h2.776L60.511,95.556,52.821,84.614h2.772a1.972,1.972,0,0,0,1.972-1.972V71.531a1.972,1.972,0,0,0-1.972-1.972H30.76a1.972,1.972,0,0,0-1.972,1.972v2.783L17.885,66.6l10.9-7.714v2.779a1.972,1.972,0,0,0,1.972,1.972H55.592a1.972,1.972,0,0,0,1.972-1.972V51.8a26.051,26.051,0,0,0,5.894,0v9.862a1.972,1.972,0,0,0,1.972,1.972H90.268a1.972,1.972,0,0,0,1.972-1.972V58.882l10.9,7.714Z" transform="translate(0 0)" fill="#fff"/>
  </g>
</svg>
