<svg xmlns="http://www.w3.org/2000/svg" width="94.494" height="94.497" viewBox="0 0 94.494 94.497">
  <g id="link" transform="translate(0.993 1)">
    <g id="Groupe_49" data-name="Groupe 49" transform="translate(-0.993 -1)">
      <g id="Groupe_48" data-name="Groupe 48" transform="translate(0 0)">
        <path id="Tracé_190" data-name="Tracé 190" d="M38.181,216.161,27.046,227.3a11.811,11.811,0,0,1-16.705-16.7l22.274-22.274a11.808,11.808,0,0,1,16.7,0,3.937,3.937,0,1,0,5.568-5.568,19.683,19.683,0,0,0-27.838,0L4.772,205.026a19.686,19.686,0,1,0,27.842,27.838l11.135-11.135a3.937,3.937,0,1,0-5.568-5.568Z" transform="translate(0.993 -144.136)" fill="#fff"/>
        <path id="Tracé_191" data-name="Tracé 191" d="M243.425,4.765a19.688,19.688,0,0,0-27.842,0l-13.36,13.36a3.937,3.937,0,1,0,5.568,5.568l13.36-13.36a11.811,11.811,0,0,1,16.705,16.7l-24.5,24.5a11.808,11.808,0,0,1-16.7,0,3.937,3.937,0,1,0-5.568,5.568,19.683,19.683,0,0,0,27.838,0l24.5-24.5A19.684,19.684,0,0,0,243.425,4.765Z" transform="translate(-154.697 1)" fill="#fff"/>
      </g>
    </g>
  </g>
</svg>
