<svg id="rocket" xmlns="http://www.w3.org/2000/svg" width="88.5" height="88.506" viewBox="0 0 88.5 88.506">
  <path id="Tracé_196" data-name="Tracé 196" d="M88.124,2.668A2.593,2.593,0,0,0,85.833.377C65.313-1.9,47.822,6.306,33.554,20.994A106.978,106.978,0,0,0,22.906,33.94,20.589,20.589,0,0,0,8.095,40.069L.76,47.4a2.593,2.593,0,0,0,2.505,4.338,36.11,36.11,0,0,1,7.123-1.112,20.027,20.027,0,0,1,2.448.02c-1.619,3.113-2.859,5.721-3.27,6.374a2.594,2.594,0,0,0,.361,3.215l4.244,4.244C8,72.906,7.894,77.22,7.915,77.832a2.605,2.605,0,0,0,2.727,2.507c1.448,0,5.6-.614,13.159-6.228l4.464,4.464a2.594,2.594,0,0,0,3.236.348c.7-.449,3.153-1.637,6.1-3.176a63.343,63.343,0,0,1-.9,9.782,2.6,2.6,0,0,0,4.4,2.213l7.335-7.335a20.481,20.481,0,0,0,5.813-14.669,107.076,107.076,0,0,0,13.623-11.2c14.548-14.266,22.5-31.625,20.253-51.873Zm-4.96,2.669A51.782,51.782,0,0,1,81.85,21.592a22.835,22.835,0,0,1-9.138-5.8A22.809,22.809,0,0,1,66.9,6.616a52.279,52.279,0,0,1,16.265-1.28ZM10.05,45.448l1.711-1.712A16.374,16.374,0,0,1,19.2,39.507c-1.4,2.22-2.645,4.339-3.744,6.3a20.828,20.828,0,0,0-5.4-.355Zm4.907,12.486c.561-1.107,1.24-2.5,2.486-4.85L20.856,56.5q-1.905,2.044-3.45,3.884Zm12.681-.992A7.668,7.668,0,0,1,33.59,54.66a7.755,7.755,0,0,1-2.284,5.95c-8.05,8.05-13.568,11.645-16.868,13.25,1.628-3.363,5.232-8.948,13.2-16.917Zm2.916,16.589L27.88,70.856q1.831-1.556,3.873-3.462l3.634,3.634C33,72.3,32,72.783,30.554,73.531Zm14.212,3.21-2.076,2.076a25.306,25.306,0,0,0-.128-5.762c1.907-1.074,3.978-2.291,6.148-3.653a15.293,15.293,0,0,1-3.945,7.339Zm-4.659-8.327-4.649-4.65c3.44-3.785,3.312-7.433,3.312-11.695a2.593,2.593,0,0,0-2.593-2.593c-3.981,0-7.813-.213-11.695,3.313l-4.44-4.44C32.166,27.091,46.18,13.632,61.924,8.09a27.927,27.927,0,0,0,7.121,11.367,27.941,27.941,0,0,0,11.315,7.1C74.785,42.219,61.329,56.224,40.107,68.415Zm0,0" transform="translate(-0.001 0)" fill="#fff"/>
  <path id="Tracé_197" data-name="Tracé 197" d="M272.321,115.626a12.966,12.966,0,1,0,0,18.336,12.981,12.981,0,0,0,0-18.336Zm-3.667,14.669a7.779,7.779,0,1,1,0-11A7.788,7.788,0,0,1,268.654,130.295Zm0,0" transform="translate(-206.944 -92.502)" fill="#fff"/>
</svg>
