<svg id="skills" xmlns="http://www.w3.org/2000/svg" width="76.5" height="76.5" viewBox="0 0 76.5 76.5">
  <g id="Groupe_51" data-name="Groupe 51" transform="translate(0 0)">
    <path id="Tracé_198" data-name="Tracé 198" d="M71.928,50.086a15.508,15.508,0,0,0-15.5-3.847l-5.461-5.461L74.827,16.915a5.714,5.714,0,0,0,0-8.081L67.666,1.674a5.714,5.714,0,0,0-8.081,0L35.723,25.536l-5.461-5.461A15.477,15.477,0,0,0,9.232,1.353a1.494,1.494,0,0,0-.454,2.424l7.128,7.128-5.04,5.039L3.739,8.816a1.494,1.494,0,0,0-2.424.454A15.477,15.477,0,0,0,20.037,30.3L25.5,35.761,7.222,54.038a1.509,1.509,0,0,0-.363.589L.352,74.261A1.494,1.494,0,0,0,2.24,76.149l19.615-6.5a1.8,1.8,0,0,0,.608-.369L40.739,51,46.2,56.465A15.476,15.476,0,0,0,67.23,75.186a1.494,1.494,0,0,0,.454-2.424l-7.128-7.128,5.04-5.04,7.128,7.128a1.494,1.494,0,0,0,2.424-.454,15.477,15.477,0,0,0-3.22-17.183ZM61.7,3.787a2.726,2.726,0,0,1,3.855,0l7.161,7.161a2.726,2.726,0,0,1,0,3.855L67.866,19.65,56.851,8.635ZM21.491,27.528a1.494,1.494,0,0,0-1.586-.341A12.494,12.494,0,0,1,3.322,12.626L9.81,19.114a1.494,1.494,0,0,0,2.113,0l7.153-7.153a1.494,1.494,0,0,0,0-2.113L12.587,3.36A12.494,12.494,0,0,1,27.149,19.943a1.494,1.494,0,0,0,.341,1.586l6.12,6.12-6,6ZM4.124,72.377l2.161-6.522,4.36,4.36Zm9.7-3.213L7.337,62.681l1.6-4.818,9.7,9.7Zm7.587-3.054-4.451-4.451L31.581,47.033a1.494,1.494,0,0,0-2.113-2.113L14.842,59.546l-4.451-4.451L54.738,10.748l.121.121L59.189,15.2,39.019,35.369a1.494,1.494,0,1,0,2.113,2.113L61.3,17.312l4.451,4.451Zm51.734-2.2-6.488-6.488a1.494,1.494,0,0,0-2.113,0l-7.152,7.153a1.494,1.494,0,0,0,0,2.113l6.488,6.488A12.494,12.494,0,0,1,49.313,56.6a1.494,1.494,0,0,0-.341-1.586l-6.12-6.12,6-6,6.12,6.12a1.494,1.494,0,0,0,1.586.341A12.494,12.494,0,0,1,73.141,63.913Z" transform="translate(-0.001 0)" fill="#fff"/>
    <g id="Groupe_50" data-name="Groupe 50" transform="translate(33.827 39.692)">
      <path id="Tracé_199" data-name="Tracé 199" d="M227.89,268.635a1.494,1.494,0,1,1,1.464-1.2A1.508,1.508,0,0,1,227.89,268.635Z" transform="translate(-226.399 -265.651)" fill="#fff"/>
    </g>
  </g>
</svg>
