<svg xmlns="http://www.w3.org/2000/svg" width="75.507" height="74.373" viewBox="0 0 75.507 74.373">
  <path id="github-1" d="M37.753,0A37.749,37.749,0,0,0,28.6,74.373a5.1,5.1,0,0,1-.283-1.793V66.16H23.6a6.449,6.449,0,0,1-5.947-3.21c-1.227-2.265-1.417-5.758-4.53-7.93-.945-.755-.19-1.51.848-1.417a9.9,9.9,0,0,1,5.1,3.869c1.51,1.982,2.172,2.455,5,2.455a38.058,38.058,0,0,0,5.285-.379,11.7,11.7,0,0,1,5-6.134c-12.647-1.51-18.687-7.74-18.687-16.236a15.579,15.579,0,0,1,4.248-10.2c-.848-2.927-1.982-8.968.379-11.326A13.4,13.4,0,0,1,30.2,20.281a29.065,29.065,0,0,1,9.154-1.51,28.61,28.61,0,0,1,9.154,1.51,13.392,13.392,0,0,1,9.909-4.624c2.265,2.265,1.227,8.4.283,11.326a15.285,15.285,0,0,1,4.154,10.2c0,8.5-5.947,14.725-18.5,16.046,3.493,1.793,5.947,6.889,5.947,10.664v8.6c0,.283-.093.565-.093.848A37.72,37.72,0,0,0,37.753,0Z" fill="#fff"/>
</svg>
