<svg xmlns="http://www.w3.org/2000/svg" xmlns:xlink="http://www.w3.org/1999/xlink" width="73.061" height="80.631" viewBox="0 0 73.061 80.631">
  <defs>
    <linearGradient id="linear-gradient" x1="0.5" y1="0.007" x2="0.5" y2="1.007" gradientUnits="objectBoundingBox">
      <stop offset="0" stop-color="#fff"/>
      <stop offset="1" stop-color="#a8a8a8"/>
    </linearGradient>
  </defs>
  <g id="hackrrank" transform="translate(4.975 -2)">
    <g id="Layer_2" transform="translate(-4.975 2)">
      <g id="Layer_1-2">
        <path id="Tracé_208" data-name="Tracé 208" d="M73.043,36.2h0c-.116-7.541-.7-14.328-1.682-16.01-.812-1.392-4.931-4.351-10.035-7.6L47.635,4.641C42.472,1.914,38.122,0,36.556,0c-1.914,0-8.121,2.9-14.734,6.613C16.775,9.4,11.5,12.588,7.552,15.256c-3.016,2.088-5.279,3.887-5.859,4.931S.649,24.131.417,28.018h0c-.348,4.873-.464,11.2-.348,17,.174,7.367.7,13.864,1.624,15.488,2.32,3.945,30.28,20.129,34.863,20.129,1.914,0,7.831-2.784,14.27-6.323,5.1-2.784,10.5-6.091,14.56-8.817h0c3.132-2.146,5.395-3.945,6.033-4.989s1.044-3.887,1.276-7.657h0C73.043,48.089,73.159,41.882,73.043,36.2ZM52.972,57.312l-5.627,5.1a.827.827,0,0,1-.7.348.935.935,0,0,1-.754-.348l-5.279-5.1a.843.843,0,0,1,.464-1.566h1.508V44.318H30.581V56.906a.892.892,0,0,1-.87.87H22.982a.892.892,0,0,1-.87-.87h0V24.885H20.545a.892.892,0,0,1-.87-.87.992.992,0,0,1,.406-.754l5.627-5.1a.827.827,0,0,1,.7-.348.935.935,0,0,1,.754.348l5.279,5.1a.843.843,0,0,1-.464,1.566H30.465V35.791H42.472V23.609a.892.892,0,0,1,.87-.87h6.729a.892.892,0,0,1,.87.87h0V55.63h1.566a.892.892,0,0,1,.87.87C53.378,56.906,53.262,57.2,52.972,57.312Z" transform="translate(-0.025)" fill="url(#linear-gradient)"/>
      </g>
    </g>
  </g>
</svg>
