<svg id="linkedin-icon-2" xmlns="http://www.w3.org/2000/svg" width="63.54" height="63.54" viewBox="0 0 63.54 63.54">
  <path id="Tracé_313" data-name="Tracé 313" d="M0,4.552A4.627,4.627,0,0,1,4.7,0H58.844a4.626,4.626,0,0,1,4.7,4.552V58.989a4.625,4.625,0,0,1-4.7,4.551H4.7A4.626,4.626,0,0,1,0,58.99V4.551Z" fill="#fff"/>
  <path id="Tracé_314" data-name="Tracé 314" d="M47.3,85.823V57.218H37.79V85.823H47.3ZM42.546,53.313c3.315,0,5.379-2.2,5.379-4.942a4.941,4.941,0,0,0-5.316-4.943c-3.254,0-5.38,2.135-5.38,4.943a4.922,4.922,0,0,0,5.254,4.942h.062ZM52.561,85.823h9.507V69.85a6.511,6.511,0,0,1,.313-2.32,5.2,5.2,0,0,1,4.879-3.478c3.44,0,4.816,2.623,4.816,6.469v15.3h9.507v-16.4c0-8.786-4.69-12.875-10.945-12.875a9.473,9.473,0,0,0-8.632,4.819h.063V57.219H52.562c.124,2.684,0,28.606,0,28.606Z" transform="translate(-27.989 -32.649)" fill="#343434"/>
</svg>
